<svg id="Layer_1" enable-background="new 0 0 511.284 511.284" height="512" viewBox="0 0 511.284 511.284" width="512" xmlns="http://www.w3.org/2000/svg"><g><path d="m465.277 135.812c-14.501-26.23-29.553-42.112-31.587-44.675-45.442-51.242-111.762-83.548-185.637-83.548-56.95 0-109.38 19.184-151.223 51.419-58.908 45.382-73.41 112.98-73.41 192.982 0 136.996 90.731 228.789 227.727 228.789 95.951 0 179.278-32.127 220.464-117.526-.004.003-.008.005-.012.008 34.147-70.789 33.113-156.002-6.322-227.449z" fill="#b930d6"/><path d="m489.497 312.539c-42.409 32.588-95.155 51.342-151.153 51.342-136.996 0-248.053-111.057-248.053-248.053 0-19.542 2.271-38.558 6.55-56.806-58.908 45.382-96.841 116.617-96.841 196.62 0 136.996 111.057 248.053 248.053 248.053 95.951 0 182.372-55.042 223.557-140.441-.004.003-.008.005-.012.008 7.844-16.26 13.807-33.284 17.899-50.723z" fill="#8d1ba5"/><g><path d="m441.882 136.086h-49.006c-4.662 0-8.442-3.78-8.442-8.442v-11.029c0-4.662 3.78-8.442 8.442-8.442h49.006c4.662 0 8.442 3.78 8.442 8.442v11.029c0 4.662-3.78 8.442-8.442 8.442z" fill="#05cdff"/><path d="m144.937 136.086h-49.006c-4.662 0-8.442-3.78-8.442-8.442v-11.029c0-4.662 3.78-8.442 8.442-8.442h49.006c4.662 0 8.442 3.78 8.442 8.442v11.029c0 4.662-3.779 8.442-8.442 8.442z" fill="#05cdff"/><path d="m506.448 272.831c-.25-.822-.51-1.643-.779-2.464l-39.763-121.486c-5.373-16.417-20.691-27.521-37.965-27.521h-29.579c-12.078 0-23.074 6.96-28.243 17.876h-204.542c-5.169-10.916-16.165-17.876-28.243-17.876h-9.592l-74.748 182.654 81.522 71.416c.056-.017.073-.021.13-.038l24.141-84.946h.529c-.761-2.01-1.235-4.162-1.335-6.398-.454-10.13 8.946-18.757 18.757-18.757h244.402c.095 0 .186.013.281.014.053-.003.106-.012.159-.014 10.13-.454 18.757 8.946 18.757 18.757v96.128c48.444-8.77 81.061-58.216 66.111-107.345z" fill="#453d49"/><g fill="#2b282d"><path d="m133.272 380.226 2.372-8.346c-25.494-17.186-42.782-43.465-49.078-72.619-3.587-16.613 9.107-32.211 26.1-32.488.22-.004.44-.009.661-.015 26.683-.769 48.632-22.253 49.93-48.916.85-17.464-7.002-33.133-19.597-43.052-16.019-12.616-22.234-34.041-15.919-53.429h-20.902c-17.295 0-32.625 11.129-37.982 27.573l-39.559 121.434c-.265.808-.521 1.618-.768 2.428-16.304 53.516 24.522 107.43 80.466 107.43z"/><path d="m467.997 368.246-18.155-63.886c-5.46-19.212-1.19-40.086 12.004-55.081 8.446-9.599 13.376-22.367 12.776-36.29-1.146-26.586-22.847-48.176-49.438-49.195-29.371-1.125-53.536 22.352-53.536 51.473 0 .178.001.355.003.533.235 23.172-18.242 42.175-41.415 42.175h-123.414l3.217 32.469h166.142l31.337 110.27c4.94 13.308 20.023 19.758 33.058 14.137 17.076-7.364 31.564-18.346 42.915-31.69-6.897-2.272-12.755-7.537-15.494-14.915z"/><path d="m138.153 361.814-.173.61c-4.94 13.308-20.024 19.758-33.058 14.137-49.222-21.227-76.985-72.476-69.857-123.897l-5.767 17.703c-18.95 57.749 9.283 120.416 65.093 144.485 13.035 5.621 28.119-.829 33.058-14.137l11.051-38.886c-.116-.004-.232-.009-.347-.015z"/><path d="m396.551 361.814.173.61c4.94 13.308 20.024 19.758 33.058 14.137 49.221-21.227 76.984-72.476 69.856-123.897l5.767 17.703c18.95 57.749-9.283 120.416-65.093 144.485-13.035 5.621-28.119-.829-33.058-14.137 0 0-10.819-38.895-10.703-38.901z"/></g><g><path d="m177.566 235.722c-11.135 0-21.306 4.126-29.068 10.933l29.068 77.277c24.359 0 44.105-19.747 44.105-44.105s-19.746-44.105-44.105-44.105z" fill="#f73c9a"/><path d="m188.418 313.361c11.966-4.516 20.372-16.281 19.853-29.943-.592-15.602-13.077-28.455-28.658-29.465-6.734-.437-13.039 1.298-18.284 4.573-3.836 2.394-8.404-1.971-6.217-5.929.069-.124.138-.248.208-.372 2.495-4.415-3.008-8.911-6.82-5.568-9.563 8.385-15.469 20.839-15.014 34.66.762 23.156 19.775 42.015 42.936 42.602 4.57.116 8.987-.464 13.153-1.641 2.428-.686 2.166-4.232-.344-4.487-.074-.008-.148-.015-.222-.023-2.365-.254-2.816-3.567-.591-4.407z" fill="#e0248b"/><circle cx="177.566" cy="279.827" fill="#2b282d" r="30.728"/><circle cx="177.566" cy="279.827" fill="#594d5e" r="24.187"/><circle cx="177.566" cy="279.827" fill="#453d49" r="15.087"/></g><g><path d="m353.706 235.722c-11.135 0-21.306 4.126-29.068 10.933l29.068 77.277c24.359 0 44.105-19.747 44.105-44.105s-19.747-44.105-44.105-44.105z" fill="#f73c9a"/><path d="m364.557 313.361c11.965-4.516 20.372-16.281 19.853-29.943-.592-15.602-13.077-28.455-28.658-29.465-6.734-.437-13.039 1.298-18.284 4.573-3.836 2.394-8.404-1.971-6.217-5.929.069-.124.138-.248.208-.372 2.495-4.415-3.008-8.911-6.82-5.568-9.563 8.385-15.469 20.839-15.014 34.66.762 23.156 19.775 42.015 42.936 42.602 4.57.116 8.987-.464 13.153-1.641 2.428-.686 2.166-4.232-.344-4.487-.074-.008-.148-.015-.222-.023-2.364-.254-2.816-3.567-.591-4.407z" fill="#e0248b"/><circle cx="353.706" cy="279.827" fill="#2b282d" r="30.728"/><circle cx="353.706" cy="279.827" fill="#594d5e" r="24.187"/><circle cx="353.706" cy="279.827" fill="#453d49" r="15.087"/></g><circle cx="111.8" cy="204.362" fill="#2b282d" r="51.511"/><circle cx="423.151" cy="204.362" fill="#2b282d" r="51.511"/><path d="m331.364 231.972h-126.372c-6.225 0-11.271-5.046-11.271-11.271v-68.514c0-6.225 5.046-11.271 11.271-11.271h126.372c6.225 0 11.271 5.046 11.271 11.271v68.514c0 6.225-5.046 11.271-11.271 11.271z" fill="#453d49"/><path d="m173.304 191.187c-4.99 0-9.035-4.045-9.035-9.035v-13.23c0-4.99 4.045-9.035 9.035-9.035 4.99 0 9.035 4.045 9.035 9.035v13.23c0 4.989-4.045 9.035-9.035 9.035z" fill="#453d49"/><path d="m361.784 189.52c-4.99 0-9.035-4.045-9.035-9.035v-13.229c0-4.99 4.045-9.035 9.035-9.035 4.99 0 9.035 4.045 9.035 9.035v13.229c0 4.99-4.045 9.035-9.035 9.035z" fill="#453d49"/><path d="m331.364 222.399h-126.372c-6.225 0-11.271-5.046-11.271-11.271v-68.514c0-6.225 5.046-11.271 11.271-11.271h126.372c6.225 0 11.271 5.046 11.271 11.271v68.514c0 6.225-5.046 11.271-11.271 11.271z" fill="#2b282d"/><path d="m216.485 154.766h103.139" fill="none" stroke="#5ab4ff" stroke-linecap="round" stroke-miterlimit="10" stroke-width="5.744"/><path d="m173.304 181.614c-4.99 0-9.035-4.045-9.035-9.035v-13.23c0-4.99 4.045-9.035 9.035-9.035 4.99 0 9.035 4.045 9.035 9.035v13.23c0 4.989-4.045 9.035-9.035 9.035z" fill="#2b282d"/><path d="m361.784 179.947c-4.99 0-9.035-4.045-9.035-9.035v-13.23c0-4.99 4.045-9.035 9.035-9.035 4.99 0 9.035 4.045 9.035 9.035v13.23c0 4.99-4.045 9.035-9.035 9.035z" fill="#2b282d"/><circle cx="423.151" cy="180.722" fill="#ffc305" r="13.34"/><circle cx="423.151" cy="228.003" fill="#be5ab9" r="13.34"/><circle cx="446.791" cy="204.362" fill="#f73c9a" r="13.34"/><circle cx="399.511" cy="204.362" fill="#5ab4ff" r="13.34"/><circle cx="111.688" cy="180.722" fill="#ffc305" r="13.34"/><circle cx="111.688" cy="228.003" fill="#be5ab9" r="13.34"/><circle cx="135.328" cy="204.362" fill="#f73c9a" r="13.34"/><circle cx="88.047" cy="204.362" fill="#5ab4ff" r="13.34"/></g></g></svg>