<?xml version="1.0" encoding="iso-8859-1"?>
<!-- Generator: Adobe Illustrator 19.0.0, SVG Export Plug-In . SVG Version: 6.00 Build 0)  -->
<svg version="1.1" id="Capa_1" xmlns="http://www.w3.org/2000/svg" xmlns:xlink="http://www.w3.org/1999/xlink" x="0px" y="0px"
	 viewBox="0 0 512 512" style="enable-background:new 0 0 512 512;" xml:space="preserve">
<path style="fill:#FFF573;" d="M511.431,256.569C511.431,396.743,398.007,512,256,512C114.362,512,0.569,397.091,0.569,256.569
	C0.569,115.498,114.929,1.137,256,1.137C397.334,1.137,511.431,115.739,511.431,256.569z"/>
<path style="fill:#FF5A5F;" d="M484.083,159.402L218.902,424.583c-36.682,36.682-95.836,36.221-132.057,0
	c-36.621-36.621-36.296-95.762,0-132.057l265.18-265.181c36.379-36.379,95.516-36.541,132.057,0
	C520.776,64.039,520.316,123.169,484.083,159.402z"/>
<path style="fill:#FF4046;" d="M309.093,334.392l-90.191,90.191c-36.685,36.685-95.837,36.22-132.057,0
	c-36.621-36.621-36.293-95.764,0-132.057l144.644-144.644C232.737,215.304,258.611,282.362,309.093,334.392z"/>
<g>
	<path style="fill:#FFAF82;" d="M278.774,207.954l0.009-107.368l-19.326,19.326v70.829c0,4.17-3.381,7.55-7.55,7.55H181.08
		l-19.326,19.326l107.368-0.009C274.458,217.608,278.774,213.291,278.774,207.954z"/>
	<path style="fill:#FFAF82;" d="M350.15,279.329V29.221l-19.326,19.325l0.008,213.568c0,4.17-3.381,7.551-7.551,7.551
		l-213.568-0.008l-19.326,19.326h250.108C345.833,288.983,350.15,284.666,350.15,279.329z"/>
	<path style="fill:#FFAF82;" d="M506.57,123.164h-33.797c-4.17,0-7.55-3.381-7.55-7.55V12.764
		c-6.147-3.615-12.642-6.466-19.317-8.534v130.701c0,4.17,3.381,7.55,7.55,7.55h44.035
		C501.297,136.343,504.329,129.849,506.57,123.164z"/>
	<path style="fill:#FFAF82;" d="M195.851,395.385H67.046c2.896,6.757,6.63,13.26,11.211,19.317h98.278c4.17,0,7.55,3.381,7.55,7.55
		v24.326c6.704-2.367,13.197-5.528,19.317-9.481v-34.162C203.402,398.765,200.021,395.385,195.851,395.385z"/>
</g>
<rect x="83.353" y="306.273" transform="matrix(-0.7071 -0.7071 0.7071 -0.7071 102.3546 680.8618)" style="fill:#DCD2CD;" width="217.67" height="25.919"/>
<polygon style="fill:#C8BEB9;" points="269.119,396.221 259.984,405.366 106.067,251.449 115.213,242.304 "/>
<path style="fill:#B4AAAA;" d="M212.66,380.24l-81.471-81.471c-2.222-2.222-2.222-5.825,0-8.047l32.481-32.481
	c2.222-2.222,5.825-2.222,8.047,0l81.471,81.471c2.222,2.222,2.222,5.825,0,8.047l-32.481,32.481
	C218.485,382.462,214.882,382.462,212.66,380.24z"/>
<path style="fill:#9B9696;" d="M232.476,368.477l-11.767,11.767c-2.222,2.222-5.829,2.222-8.051,0l-81.475-81.475
	c-2.222-2.222-2.222-5.829,0-8.051l32.486-32.486c2.222-2.222,5.819-2.213,8.042,0.009l10.09,10.09l-20.711,20.711
	c-2.222,2.222-2.222,5.829,0,8.051L232.476,368.477z"/>
<path style="fill:#DCD2CD;" d="M180.782,330.646L180.782,330.646c-8.886-8.886-8.886-23.294,0-32.179l15.58-15.58l32.179,32.179
	l-15.58,15.58C204.076,339.532,189.669,339.532,180.782,330.646z"/>
<path style="fill:#C8BEB9;" d="M201.447,336.848c-7.231,1.476-15.054-0.592-20.665-6.202c-8.889-8.889-8.889-23.297,0-32.186
	l15.574-15.574l9.262,9.262l-8.898,8.898c-8.889,8.889-8.889,23.297,0,32.186C198.16,334.671,199.753,335.883,201.447,336.848z"/>
<circle style="fill:#9B9696;" cx="194.598" cy="316.832" r="9.659"/>
<path style="fill:#8C8787;" d="M198.15,325.809c-3.47,1.375-7.577,0.656-10.383-2.15c-3.771-3.771-3.779-9.881,0-13.661
	c2.814-2.814,6.931-3.525,10.41-2.14c-1.193,0.465-2.314,1.184-3.279,2.15c-3.771,3.771-3.779,9.881,0,13.661
	C195.856,324.626,196.967,325.336,198.15,325.809z"/>
<polygon style="fill:#DCD2CD;" points="124.4,233.127 115.213,242.304 124.39,233.116 "/>
<path style="fill:#5AA073;" d="M147.309,225.756l-12.042-12.042c-3.226-3.226-8.456-3.226-11.682,0L86.66,250.64
	c-3.226,3.226-3.226,8.456,0,11.682l12.042,12.042c3.226,3.226,8.456,3.226,11.682,0l36.926-36.926
	C150.535,234.213,150.535,228.982,147.309,225.756z"/>
<path style="fill:#509169;" d="M147.306,237.437l-36.918,36.929c-3.227,3.227-8.462,3.227-11.689,0l-0.704-0.715l-11.332-11.332
	c-3.227-3.227-3.227-8.452,0-11.679l5.54-5.54c3.606,0.589,7.295,0.894,11.069,0.894c0.378,0,0.767,0,1.146-0.01
	c9.808-0.158,19.111-2.376,27.499-6.244c6.307-2.901,12.089-6.728,17.187-11.3C150.333,231.435,149.745,234.998,147.306,237.437z"/>
<rect x="82.617" y="236.528" transform="matrix(0.7071 -0.7071 0.7071 0.7071 -138.3004 154.1999)" style="fill:#7DC88C;" width="68.737" height="15.031"/>
<path style="fill:#69B482;" d="M131.916,239.739l-33.922,33.912l-10.628-10.628l17.05-17.04
	C114.225,245.825,123.528,243.607,131.916,239.739z"/>
<path style="fill:#5AA073;" d="M237.067,412.727l12.042,12.042c3.226,3.226,8.456,3.226,11.682,0l36.926-36.926
	c3.226-3.226,3.226-8.456,0-11.682l-12.042-12.041c-3.226-3.226-8.456-3.226-11.682,0l-36.926,36.925
	C233.841,404.27,233.841,409.501,237.067,412.727z"/>
<path style="fill:#509169;" d="M273.993,364.124l-36.929,36.918c-3.227,3.227-3.227,8.462,0,11.689l0.715,0.704l11.332,11.332
	c3.227,3.227,8.452,3.227,11.679,0l5.54-5.54c-0.589-3.606-0.894-7.295-0.894-11.069c0-0.378,0-0.767,0.011-1.146
	c0.158-9.808,2.376-19.111,6.244-27.499c2.901-6.307,6.728-12.089,11.3-17.187C279.996,361.097,276.432,361.686,273.993,364.124z"/>
<rect x="233.011" y="386.93" transform="matrix(-0.7071 0.7071 -0.7071 -0.7071 735.3605 484.2948)" style="fill:#7DC88C;" width="68.737" height="15.031"/>
<path style="fill:#69B482;" d="M271.691,379.514l-33.912,33.922l10.628,10.628l17.04-17.05
	C265.605,397.206,267.824,387.903,271.691,379.514z"/>
<rect x="266.45" y="123.193" transform="matrix(-0.7071 -0.7071 0.7071 -0.7071 544.3768 497.793)" style="fill:#DCD2CD;" width="217.67" height="25.919"/>
<polygon style="fill:#C8BEB9;" points="452.211,213.128 443.076,222.273 289.159,68.356 298.305,59.211 "/>
<path style="fill:#B4AAAA;" d="M395.752,197.147l-81.471-81.471c-2.222-2.222-2.222-5.825,0-8.047l32.481-32.481
	c2.222-2.222,5.825-2.222,8.047,0l81.471,81.471c2.222,2.222,2.222,5.825,0,8.047l-32.481,32.481
	C401.577,199.37,397.974,199.37,395.752,197.147z"/>
<path style="fill:#9B9696;" d="M415.568,185.386l-11.767,11.767c-2.222,2.222-5.829,2.222-8.051,0l-81.475-81.475
	c-2.222-2.222-2.222-5.829,0-8.051l32.486-32.486c2.222-2.222,5.819-2.213,8.042,0.009l10.09,10.09l-20.709,20.711
	c-2.222,2.222-2.222,5.829,0,8.051L415.568,185.386z"/>
<path style="fill:#DCD2CD;" d="M363.874,147.554L363.874,147.554c-8.886-8.886-8.886-23.294,0-32.179l15.58-15.58l32.179,32.179
	l-15.58,15.58C387.168,156.44,372.761,156.44,363.874,147.554z"/>
<path style="fill:#C8BEB9;" d="M384.539,153.756c-7.231,1.476-15.054-0.592-20.664-6.202c-8.889-8.889-8.889-23.297,0-32.186
	l15.574-15.574l9.262,9.262l-8.898,8.898c-8.889,8.889-8.889,23.297,0,32.186C381.252,151.579,382.845,152.79,384.539,153.756z"/>
<circle style="fill:#9B9696;" cx="377.686" cy="133.744" r="9.659"/>
<path style="fill:#8C8787;" d="M381.242,142.717c-3.47,1.375-7.577,0.656-10.383-2.15c-3.771-3.771-3.779-9.881,0-13.661
	c2.814-2.814,6.931-3.525,10.41-2.14c-1.193,0.465-2.314,1.184-3.279,2.15c-3.771,3.771-3.779,9.881,0,13.661
	C378.947,141.534,380.059,142.244,381.242,142.717z"/>
<polygon style="fill:#DCD2CD;" points="307.492,50.034 298.305,59.211 307.482,50.024 "/>
<path style="fill:#5AA073;" d="M330.401,42.664l-12.041-12.042c-3.226-3.226-8.456-3.226-11.682,0l-36.926,36.926
	c-3.226,3.226-3.226,8.456,0,11.682l12.041,12.042c3.226,3.226,8.456,3.226,11.682,0l36.926-36.924
	C333.627,51.121,333.627,45.89,330.401,42.664z"/>
<path style="fill:#509169;" d="M330.398,54.344L293.48,91.273c-3.227,3.227-8.462,3.227-11.689,0l-0.704-0.715l-11.332-11.332
	c-3.227-3.227-3.227-8.452,0-11.679l5.54-5.54c3.606,0.589,7.295,0.894,11.069,0.894c0.378,0,0.767,0,1.146-0.011
	c9.808-0.158,19.111-2.376,27.499-6.244c6.307-2.901,12.089-6.728,17.187-11.3C333.425,48.343,332.837,51.905,330.398,54.344z"/>
<rect x="265.716" y="53.432" transform="matrix(0.7071 -0.7071 0.7071 0.7071 44.7965 230.0428)" style="fill:#7DC88C;" width="68.737" height="15.031"/>
<path style="fill:#69B482;" d="M315.008,56.646l-33.922,33.912L270.458,79.93l17.05-17.04
	C297.316,62.733,306.62,60.515,315.008,56.646z"/>
<path style="fill:#5AA073;" d="M420.159,229.634l12.041,12.042c3.226,3.226,8.456,3.226,11.682,0l36.926-36.926
	c3.226-3.226,3.226-8.456,0-11.682l-12.041-12.042c-3.226-3.226-8.456-3.226-11.682,0l-36.926,36.926
	C416.934,221.178,416.934,226.408,420.159,229.634z"/>
<path style="fill:#509169;" d="M457.086,181.032l-36.929,36.918c-3.227,3.227-3.227,8.462,0,11.689l0.715,0.704l11.332,11.332
	c3.227,3.227,8.452,3.227,11.679,0l5.54-5.54c-0.589-3.606-0.894-7.295-0.894-11.069c0-0.378,0-0.767,0.011-1.146
	c0.158-9.808,2.376-19.111,6.244-27.499c2.901-6.307,6.728-12.089,11.3-17.187C463.089,178.004,459.525,178.594,457.086,181.032z"/>
<rect x="416.115" y="203.834" transform="matrix(-0.7071 0.7071 -0.7071 -0.7071 918.4709 42.2554)" style="fill:#7DC88C;" width="68.737" height="15.031"/>
<path style="fill:#69B482;" d="M454.784,196.421l-33.912,33.922l10.628,10.628l17.04-17.05
	C448.698,214.113,450.916,204.81,454.784,196.421z"/>
<g>
</g>
<g>
</g>
<g>
</g>
<g>
</g>
<g>
</g>
<g>
</g>
<g>
</g>
<g>
</g>
<g>
</g>
<g>
</g>
<g>
</g>
<g>
</g>
<g>
</g>
<g>
</g>
<g>
</g>
</svg>
